# Blender 3.1.0
# www.blender.org
mtllib Columns.mtl
o Cylinder.005
v 74.018570 1.045933 50.447613
v 74.018570 6.937002 50.447613
v 74.424286 1.045933 50.556324
v 74.424286 6.937002 50.556324
v 74.721291 1.045933 50.853333
v 74.721291 6.937002 50.853333
v 74.830009 1.045933 51.259048
v 74.830009 6.937002 51.242184
v 74.721291 1.045933 51.664768
v 74.721291 6.937002 51.664768
v 74.424286 1.045933 51.961777
v 74.424286 6.937002 51.961777
v 74.018570 1.045933 52.070488
v 74.018570 6.937002 52.070488
v 73.612854 1.045933 51.961777
v 73.612854 6.937002 51.961777
v 73.315842 1.045933 51.664768
v 73.315842 6.937002 51.664768
v 73.207130 1.045933 51.259048
v 73.207130 6.937002 51.242184
v 73.315842 1.045933 50.853333
v 73.315842 6.937002 50.853333
v 73.612854 1.045933 50.556324
v 73.612854 6.937002 50.556324
v 73.364037 1.045933 50.037083
v 72.784233 1.045933 50.037083
v 72.784233 1.045933 51.254730
v 72.784233 1.045933 51.964272
v 72.784233 1.045933 52.481701
v 74.004356 1.045933 52.481701
v 74.644676 1.045933 52.481701
v 75.170609 1.045933 52.481701
v 75.170609 1.045933 51.254730
v 75.170609 1.045933 50.037083
v 74.644676 1.045933 50.037083
v 74.004356 1.045933 50.037083
v 75.170609 0.739962 50.037083
v 75.170609 0.739962 51.248459
v 75.170609 0.739962 52.481701
v 74.644676 0.739962 52.481701
v 74.004356 0.739962 52.481701
v 72.784233 0.739962 52.481701
v 72.784233 0.739962 51.949673
v 72.784233 0.739962 51.248459
v 72.784233 0.739962 50.037083
v 73.364037 0.739962 50.037083
v 74.644676 0.739962 50.037083
v 74.004356 0.739962 50.037083
v 73.364037 6.937002 50.037083
v 72.784233 6.937002 50.037083
v 72.784233 6.937002 51.242184
v 72.784233 6.937002 51.935078
v 72.784233 6.937002 52.481701
v 74.004356 6.937002 52.481701
v 74.644676 6.937002 52.481701
v 75.170609 6.937002 52.481701
v 75.170609 6.937002 51.242184
v 75.170609 6.937002 50.037083
v 74.644676 6.937002 50.037083
v 74.004356 6.937002 50.037083
v 75.170609 7.242973 50.037083
v 75.170609 7.242973 51.242184
v 75.170609 7.242973 52.481701
v 74.644676 7.242973 52.481701
v 74.004356 7.242973 52.481701
v 72.784233 7.242973 52.481701
v 72.784233 7.242973 51.935078
v 72.784233 7.242973 51.242184
v 72.784233 7.242973 50.037083
v 73.364037 7.242973 50.037083
v 74.644676 7.242973 50.037083
v 74.004356 7.242973 50.037083
v 75.042732 7.368223 50.159794
v 75.042732 7.368223 51.242184
v 75.042732 7.368223 52.349850
v 74.571564 7.368223 52.349850
v 73.997925 7.368223 52.349850
v 72.904854 7.368223 52.349850
v 72.904854 7.368223 51.935078
v 72.904854 7.368223 51.242184
v 72.904854 7.368223 50.159794
v 73.424278 7.368223 50.159794
v 74.571564 7.368223 50.159794
v 73.997925 7.368223 50.159794
v 75.042732 7.510419 50.159794
v 75.042732 7.510419 51.242184
v 75.042732 7.510419 52.349850
v 74.571564 7.510419 52.349850
v 73.997925 7.510419 52.349850
v 72.904854 7.510419 52.349850
v 72.904854 7.510419 51.935078
v 72.904854 7.510419 51.242184
v 72.904854 7.510419 50.159794
v 73.424278 7.510419 50.159794
v 74.571564 7.510419 50.159794
v 73.997925 7.510419 50.159794
v 75.225571 7.699325 49.984348
v 75.225571 7.699325 51.242184
v 75.225571 7.699325 52.538368
v 74.676102 7.699325 52.538368
v 74.007126 7.699325 52.538368
v 72.732399 7.699325 52.538368
v 72.732399 7.699325 51.935078
v 72.732399 7.699325 51.242184
v 72.732399 7.699325 49.984348
v 73.338150 7.699325 49.984348
v 74.676102 7.699325 49.984348
v 74.007126 7.699325 49.984348
v 75.225571 7.921474 49.984348
v 75.225571 7.921474 51.242184
v 75.225571 7.921474 52.538368
v 74.676102 7.921474 52.538368
v 74.007126 7.921474 52.538368
v 72.732399 7.921474 52.538368
v 72.732399 7.921474 51.935078
v 72.732399 7.921474 51.242184
v 72.732399 7.921474 49.984348
v 73.338150 7.921474 49.984348
v 74.676102 7.921474 49.984348
v 74.007126 7.921474 49.984348
v 74.592842 7.921474 51.242184
v 73.952522 7.921474 51.242184
v 73.312202 7.921474 51.242184
v 73.083061 7.921474 51.525154
v 73.443810 7.921474 51.794521
v 75.042732 0.614712 50.159794
v 75.042732 0.614712 51.242184
v 75.042732 0.614712 52.349850
v 74.571564 0.614712 52.349850
v 73.997925 0.614712 52.349850
v 72.904854 0.614712 52.349850
v 72.904854 0.614712 51.935078
v 72.904854 0.614712 51.242184
v 72.904854 0.614712 50.159794
v 73.424278 0.614712 50.159794
v 74.571564 0.614712 50.159794
v 73.997925 0.614712 50.159794
v 75.042732 0.472517 50.159794
v 75.042732 0.472517 51.242184
v 75.042732 0.472517 52.349850
v 74.571564 0.472517 52.349850
v 73.997925 0.472517 52.349850
v 72.904854 0.472517 52.349850
v 72.904854 0.472517 51.935078
v 72.904854 0.472517 51.242184
v 72.904854 0.472517 50.159794
v 73.424278 0.472517 50.159794
v 74.571564 0.472517 50.159794
v 73.997925 0.472517 50.159794
v 75.225571 0.283610 49.984348
v 75.225571 0.283610 51.242184
v 75.225571 0.283610 52.538368
v 74.676102 0.283610 52.538368
v 74.007126 0.283610 52.538368
v 72.732399 0.283610 52.538368
v 72.732399 0.283610 51.935078
v 72.732399 0.283610 51.242184
v 72.732399 0.283610 49.984348
v 73.338150 0.283610 49.984348
v 74.676102 0.283610 49.984348
v 74.007126 0.283610 49.984348
v 75.225571 0.061462 49.984348
v 75.225571 0.061462 51.242184
v 75.225571 0.061462 52.538368
v 74.676102 0.061462 52.538368
v 74.007126 0.061462 52.538368
v 72.732399 0.061462 52.538368
v 72.732399 0.061461 51.935078
v 72.732399 0.061461 51.242184
v 72.732399 0.061461 49.984348
v 73.338150 0.061462 49.984348
v 74.676102 0.061462 49.984348
v 74.007126 0.061462 49.984348
vn 0.2588 -0.0000 -0.9659
vn 0.7071 -0.0000 -0.7071
vn 0.9645 -0.0004 -0.2639
vn 0.9672 0.0004 0.2539
vn 0.7071 -0.0000 0.7071
vn 0.2588 -0.0000 0.9659
vn -0.2588 -0.0000 0.9659
vn -0.7071 -0.0000 0.7071
vn -0.9672 0.0004 0.2539
vn -0.9645 -0.0004 -0.2639
vn -0.7071 -0.0000 -0.7071
vn -0.2588 -0.0000 -0.9659
vn -0.0000 1.0000 -0.0000
vn -0.0000 -0.0000 -1.0000
vn -1.0000 -0.0000 -0.0000
vn -0.0000 -0.0000 1.0000
vn 1.0000 -0.0000 -0.0000
vn -0.0000 -0.6998 0.7143
vn 0.7203 -0.6937 -0.0000
vn -0.0000 -0.7250 -0.6887
vn -0.6997 -0.7144 -0.0000
vn -0.0000 0.7064 -0.7078
vn -0.7186 0.6955 -0.0000
vn 0.7385 0.6742 -0.0000
vn -0.0000 0.6805 0.7327
vn -0.0000 -1.0000 -0.0000
vn -0.0000 -0.6998 -0.7143
vn -0.7203 -0.6937 -0.0000
vn -0.0000 -0.7250 0.6887
vn 0.6997 -0.7144 -0.0000
vn -0.0000 0.7064 0.7078
vn 0.7186 0.6955 -0.0000
vn -0.7385 0.6742 -0.0000
vn -0.0000 0.6805 -0.7327
vt 0.312095 0.007138
vt 0.473291 0.301016
vt 0.312095 0.562756
vt 0.473291 0.545857
vt 0.273830 0.007138
vt 0.435026 0.311270
vt 0.273830 0.562756
vt 0.435026 0.556110
vt 0.245818 0.007138
vt 0.112706 0.007138
vt 0.407014 0.339282
vt 0.245818 0.562756
vt 0.112706 0.562756
vt 0.407014 0.584123
vt 0.074875 0.007138
vt 0.396760 0.377547
vt 0.076465 0.562756
vt 0.396760 0.620797
vt 0.036235 0.007138
vt 0.407014 0.415813
vt 0.036235 0.562756
vt 0.407014 0.660654
vt 0.007138 0.007138
vt 0.919862 0.262297
vt 0.435026 0.443825
vt 0.007138 0.562756
vt 0.919862 0.817915
vt 0.435026 0.688666
vt 0.881597 0.262297
vt 0.473291 0.454078
vt 0.881597 0.817915
vt 0.473291 0.698919
vt 0.843332 0.262297
vt 0.962151 0.262297
vt 0.511556 0.443825
vt 0.843331 0.817915
vt 0.962151 0.817915
vt 0.511556 0.688666
vt 0.934138 0.262297
vt 0.126982 0.562756
vt 0.539569 0.415813
vt 0.934138 0.817915
vt 0.126982 0.007138
vt 0.539569 0.660654
vt 0.165241 0.562756
vt 0.549822 0.377547
vt 0.166832 0.007138
vt 0.549822 0.620797
vt 0.203513 0.562756
vt 0.539569 0.339282
vt 0.203513 0.007138
vt 0.539569 0.584123
vt 0.231542 0.562756
vt 0.350360 0.007138
vt 0.511556 0.311270
vt 0.231542 0.007138
vt 0.350360 0.562756
vt 0.511556 0.556110
vt 0.535024 0.262297
vt 0.231542 0.636605
vt 0.589708 0.262297
vt 0.099988 0.812944
vt 0.231542 0.581921
vt 0.589708 0.377140
vt 0.099988 0.698101
vt 0.589708 0.444060
vt 0.099988 0.631181
vt 0.589708 0.492862
vt 0.099988 0.582379
vt 0.474226 0.751979
vt 0.474632 0.492862
vt 0.474226 0.867055
vt 0.414240 0.492862
vt 0.474226 0.927447
vt 0.364636 0.492862
vt 0.474226 0.977051
vt 0.431092 0.751979
vt 0.364636 0.377140
vt 0.431092 0.867610
vt 0.364636 0.262297
vt 0.231542 0.806993
vt 0.431092 0.982364
vt 0.414240 0.262297
vt 0.231542 0.757389
vt 0.474632 0.262297
vt 0.231542 0.696997
vt 0.459950 0.982364
vt 0.202684 0.806993
vt 0.829055 0.262297
vt 0.459950 0.868202
vt 0.829055 0.376548
vt 0.503083 0.977051
vt 0.459950 0.751979
vt 0.829055 0.492862
vt 0.503083 0.927447
vt 0.779452 0.492862
vt 0.503083 0.867055
vt 0.719060 0.492862
vt 0.503083 0.751979
vt 0.603984 0.492862
vt 0.071131 0.582379
vt 0.071131 0.632558
vt 0.071131 0.698693
vt 0.071131 0.812944
vt 0.202684 0.581921
vt 0.202684 0.636605
vt 0.202684 0.757389
vt 0.202684 0.696997
vt 0.535024 0.507138
vt 0.245818 0.752603
vt 0.589708 0.507138
vt 0.614056 0.011915
vt 0.245818 0.807287
vt 0.589708 0.620797
vt 0.614056 0.125486
vt 0.589708 0.686148
vt 0.614056 0.190785
vt 0.589708 0.737703
vt 0.614056 0.242300
vt 0.546217 0.977051
vt 0.474632 0.737703
vt 0.546217 0.861974
vt 0.414240 0.737703
vt 0.546217 0.801582
vt 0.364636 0.737703
vt 0.546217 0.751979
vt 0.949408 0.237703
vt 0.364636 0.620797
vt 0.949408 0.120797
vt 0.364636 0.507138
vt 0.245818 0.582216
vt 0.949408 0.007138
vt 0.414240 0.507138
vt 0.245818 0.631819
vt 0.474632 0.507138
vt 0.245818 0.692211
vt 0.920551 0.007138
vt 0.274675 0.582216
vt 0.829055 0.507138
vt 0.920551 0.120797
vt 0.829055 0.620797
vt 0.517359 0.751979
vt 0.920551 0.237703
vt 0.829055 0.737703
vt 0.517359 0.801582
vt 0.779452 0.737703
vt 0.517359 0.861974
vt 0.719060 0.737703
vt 0.517359 0.977051
vt 0.603984 0.737703
vt 0.642914 0.242300
vt 0.642914 0.190785
vt 0.642914 0.125486
vt 0.642914 0.011915
vt 0.274675 0.807287
vt 0.274675 0.752603
vt 0.274675 0.631819
vt 0.274675 0.692211
vt 0.816995 0.518711
vt 0.364636 0.976305
vt 0.286488 0.594276
vt 0.816995 0.620797
vt 0.364636 0.874218
vt 0.816995 0.725267
vt 0.364636 0.769748
vt 0.787639 0.225038
vt 0.772557 0.725267
vt 0.787639 0.180600
vt 0.718453 0.725267
vt 0.787639 0.126497
vt 0.615360 0.725267
vt 0.787639 0.023403
vt 0.654727 0.229425
vt 0.654727 0.190336
vt 0.654727 0.125036
vt 0.654727 0.023030
vt 0.286488 0.795911
vt 0.286488 0.746921
vt 0.286488 0.638714
vt 0.286488 0.692818
vt 0.378047 0.976305
vt 0.299900 0.594276
vt 0.378047 0.874218
vt 0.378047 0.769748
vt 0.801050 0.225038
vt 0.801050 0.180600
vt 0.801050 0.126497
vt 0.801050 0.023403
vt 0.668138 0.229425
vt 0.668138 0.190336
vt 0.668138 0.125036
vt 0.668138 0.023030
vt 0.299900 0.795911
vt 0.299900 0.746921
vt 0.299900 0.638714
vt 0.299900 0.692818
vt 0.395864 0.992862
vt 0.317716 0.577032
vt 0.395864 0.874229
vt 0.395864 0.751979
vt 0.818867 0.242282
vt 0.818867 0.190459
vt 0.818867 0.127364
vt 0.818867 0.007138
vt 0.685955 0.247833
vt 0.685955 0.190978
vt 0.685955 0.125679
vt 0.685955 0.007138
vt 0.317716 0.812176
vt 0.317716 0.755045
vt 0.317716 0.628855
vt 0.317716 0.691950
vt 0.416816 0.992862
vt 0.338668 0.577032
vt 0.599780 0.007138
vt 0.416816 0.874229
vt 0.599780 0.125771
vt 0.416816 0.751979
vt 0.839819 0.242282
vt 0.599780 0.248021
vt 0.839819 0.190459
vt 0.547957 0.248021
vt 0.839819 0.127364
vt 0.484862 0.248021
vt 0.839819 0.007138
vt 0.706907 0.247833
vt 0.364636 0.248021
vt 0.706907 0.190978
vt 0.364636 0.191122
vt 0.706907 0.125679
vt 0.364636 0.125771
vt 0.706907 0.007138
vt 0.338668 0.812176
vt 0.364636 0.007138
vt 0.338668 0.755045
vt 0.421768 0.007138
vt 0.338668 0.628855
vt 0.547957 0.007138
vt 0.338668 0.691950
vt 0.484862 0.007138
vt 0.540105 0.125771
vt 0.479713 0.125771
vt 0.419321 0.125771
vt 0.397709 0.152460
vt 0.431733 0.177865
vt 0.816995 0.273870
vt 0.773363 0.024353
vt 0.190871 0.794932
vt 0.816995 0.375957
vt 0.773363 0.126360
vt 0.816995 0.480427
vt 0.773363 0.230748
vt 0.906275 0.024382
vt 0.772557 0.480427
vt 0.906275 0.068820
vt 0.718453 0.480427
vt 0.906275 0.122924
vt 0.615360 0.480426
vt 0.906275 0.226017
vt 0.059318 0.594821
vt 0.059318 0.633941
vt 0.059318 0.699291
vt 0.059318 0.801377
vt 0.190871 0.593297
vt 0.190871 0.642287
vt 0.190871 0.750494
vt 0.190871 0.696391
vt 0.759952 0.024353
vt 0.177460 0.794932
vt 0.759952 0.126360
vt 0.759952 0.230748
vt 0.892863 0.024382
vt 0.892863 0.068820
vt 0.892863 0.122924
vt 0.892863 0.226017
vt 0.045907 0.594821
vt 0.045907 0.633941
vt 0.045907 0.699291
vt 0.045907 0.801377
vt 0.177460 0.593297
vt 0.177460 0.642287
vt 0.177460 0.750494
vt 0.177460 0.696391
vt 0.742135 0.007138
vt 0.159643 0.812176
vt 0.742135 0.125679
vt 0.742135 0.247833
vt 0.875047 0.007138
vt 0.875047 0.058962
vt 0.875047 0.122056
vt 0.875047 0.242282
vt 0.028090 0.577032
vt 0.028090 0.633931
vt 0.028090 0.699282
vt 0.028090 0.817915
vt 0.159643 0.577032
vt 0.159643 0.634163
vt 0.159643 0.760353
vt 0.159643 0.697258
vt 0.721183 0.007138
vt 0.138691 0.812176
vt 0.721183 0.125679
vt 0.721183 0.247833
vt 0.854095 0.007138
vt 0.854095 0.058961
vt 0.854095 0.122056
vt 0.854095 0.242282
vt 0.007138 0.577032
vt 0.007138 0.633931
vt 0.007138 0.699282
vt 0.007138 0.817915
vt 0.138691 0.577032
vt 0.138691 0.634164
vt 0.138691 0.760353
vt 0.138691 0.697258
s 0
f 1/1/1 2/3/1 4/7/1 3/5/1
f 3/5/2 4/7/2 6/12/2 5/9/2
f 5/10/3 6/13/3 8/17/3 7/15/3
f 7/15/4 8/17/4 10/21/4 9/19/4
f 9/19/5 10/21/5 12/26/5 11/23/5
f 11/24/6 12/27/6 14/31/6 13/29/6
f 13/29/7 14/31/7 16/36/7 15/33/7
f 15/34/8 16/37/8 18/42/8 17/39/8
f 17/40/9 18/43/9 20/47/9 19/45/9
f 19/45/10 20/47/10 22/51/10 21/49/10
f 21/49/11 22/51/11 24/56/11 23/53/11
f 23/54/12 24/57/12 2/3/12 1/1/12
f 1/2/13 3/6/13 35/83/13 36/85/13
f 23/55/13 1/2/13 36/85/13 25/59/13
f 7/16/13 9/20/13 32/75/13 33/78/13
f 9/20/13 11/25/13 31/73/13 32/75/13
f 11/25/13 13/30/13 30/71/13 31/73/13
f 13/30/13 15/35/13 29/68/13 30/71/13
f 15/35/13 17/41/13 28/66/13 29/68/13
f 17/41/13 19/46/13 27/64/13 28/66/13
f 19/46/13 21/50/13 26/61/13 27/64/13
f 3/6/13 5/11/13 34/80/13 35/83/13
f 21/50/13 23/55/13 25/59/13 26/61/13
f 5/11/13 7/16/13 33/78/13 34/80/13
f 8/18/13 10/22/13 56/125/13 57/128/13
f 24/58/13 2/4/13 60/135/13 49/109/13
f 2/4/13 4/8/13 59/133/13 60/135/13
f 36/86/14 35/84/14 47/107/14 48/108/14
f 29/69/15 28/67/15 43/102/15 42/101/15
f 32/76/16 31/74/16 40/95/16 39/92/16
f 25/60/14 36/86/14 48/108/14 46/106/14
f 35/84/14 34/81/14 37/88/14 47/107/14
f 28/67/15 27/65/15 44/103/15 43/102/15
f 31/74/16 30/72/16 41/97/16 40/95/16
f 34/82/17 33/79/17 38/90/17 37/87/17
f 27/65/15 26/62/15 45/104/15 44/103/15
f 30/72/16 29/70/16 42/99/16 41/97/16
f 33/79/17 32/77/17 39/93/17 38/90/17
f 26/63/14 25/60/14 46/106/14 45/105/14
f 10/22/13 12/28/13 55/123/13 56/125/13
f 12/28/13 14/32/13 54/121/13 55/123/13
f 14/32/13 16/38/13 53/118/13 54/121/13
f 16/38/13 18/44/13 52/116/13 53/118/13
f 18/44/13 20/48/13 51/114/13 52/116/13
f 20/48/13 22/52/13 50/111/13 51/114/13
f 4/8/13 6/14/13 58/130/13 59/133/13
f 22/52/13 24/58/13 49/109/13 50/111/13
f 6/14/13 8/18/13 57/128/13 58/130/13
f 60/136/16 59/134/16 71/157/16 72/158/16
f 53/119/17 52/117/17 67/152/17 66/151/17
f 56/126/14 55/124/14 64/145/14 63/142/14
f 49/110/16 60/136/16 72/158/16 70/156/16
f 59/134/16 58/131/16 61/138/16 71/157/16
f 52/117/17 51/115/17 68/153/17 67/152/17
f 55/124/14 54/122/14 65/147/14 64/145/14
f 58/132/15 57/129/15 62/140/15 61/137/15
f 51/115/17 50/112/17 69/154/17 68/153/17
f 54/122/14 53/120/14 66/149/14 65/147/14
f 57/129/15 56/127/15 63/143/15 62/140/15
f 50/113/16 49/110/16 70/156/16 69/155/16
f 71/157/18 61/138/18 73/161/18 83/179/18
f 67/152/19 68/153/19 80/175/19 79/174/19
f 64/146/20 65/148/20 77/169/20 76/167/20
f 61/139/21 62/141/21 74/162/21 73/159/21
f 68/153/19 69/154/19 81/176/19 80/175/19
f 65/148/20 66/150/20 78/171/20 77/169/20
f 62/141/21 63/144/21 75/164/21 74/162/21
f 69/155/18 70/156/18 82/178/18 81/177/18
f 72/158/18 71/157/18 83/179/18 84/180/18
f 66/151/19 67/152/19 79/174/19 78/173/19
f 63/144/20 64/146/20 76/167/20 75/164/20
f 70/156/18 72/158/18 84/180/18 82/178/18
f 76/168/14 77/170/14 89/187/14 88/186/14
f 73/160/15 74/163/15 86/183/15 85/181/15
f 80/175/17 81/176/17 93/192/17 92/191/17
f 77/170/14 78/172/14 90/188/14 89/187/14
f 74/163/15 75/165/15 87/184/15 86/183/15
f 81/177/16 82/178/16 94/194/16 93/193/16
f 84/180/16 83/179/16 95/195/16 96/196/16
f 78/173/17 79/174/17 91/190/17 90/189/17
f 75/166/14 76/168/14 88/186/14 87/185/14
f 82/178/16 84/180/16 96/196/16 94/194/16
f 83/179/16 73/161/16 85/182/16 95/195/16
f 79/174/17 80/175/17 92/191/17 91/190/17
f 88/186/22 89/187/22 101/203/22 100/202/22
f 85/181/23 86/183/23 98/199/23 97/197/23
f 92/191/24 93/192/24 105/208/24 104/207/24
f 89/187/22 90/188/22 102/204/22 101/203/22
f 86/183/23 87/184/23 99/200/23 98/199/23
f 93/193/25 94/194/25 106/210/25 105/209/25
f 96/196/25 95/195/25 107/211/25 108/212/25
f 90/189/24 91/190/24 103/206/24 102/205/24
f 87/185/22 88/186/22 100/202/22 99/201/22
f 94/194/25 96/196/25 108/212/25 106/210/25
f 95/195/25 85/182/25 97/198/25 107/211/25
f 91/190/24 92/191/24 104/207/24 103/206/24
f 103/206/17 104/207/17 116/230/17 115/228/17
f 100/202/14 101/203/14 113/223/14 112/221/14
f 97/197/15 98/199/15 110/216/15 109/213/15
f 104/207/17 105/208/17 117/232/17 116/230/17
f 101/203/14 102/204/14 114/225/14 113/223/14
f 98/199/15 99/200/15 111/218/15 110/216/15
f 105/209/16 106/210/16 118/235/16 117/233/16
f 108/212/16 107/211/16 119/237/16 120/239/16
f 102/205/17 103/206/17 115/228/17 114/226/17
f 99/201/14 100/202/14 112/221/14 111/219/14
f 106/210/16 108/212/16 120/239/16 118/235/16
f 107/211/16 97/198/16 109/214/16 119/237/16
f 111/220/26 112/222/26 121/241/26 110/217/26
f 110/217/26 121/241/26 119/238/26 109/215/26
f 120/240/26 119/238/26 121/241/26 122/242/26
f 122/242/26 121/241/26 112/222/26 113/224/26
f 118/236/26 120/240/26 122/242/26 123/243/26
f 117/234/26 118/236/26 123/243/26 116/231/26
f 114/227/26 115/229/26 124/244/26 125/245/26
f 113/224/26 114/227/26 125/245/26 122/242/26
f 116/231/26 123/243/26 124/244/26 115/229/26
f 125/245/26 124/244/26 123/243/26 122/242/26
f 47/107/27 37/88/27 126/248/27 136/266/27
f 43/102/28 44/103/28 133/262/28 132/261/28
f 40/96/29 41/98/29 130/256/29 129/254/29
f 37/89/30 38/91/30 127/249/30 126/246/30
f 44/103/28 45/104/28 134/263/28 133/262/28
f 41/98/29 42/100/29 131/258/29 130/256/29
f 38/91/30 39/94/30 128/251/30 127/249/30
f 45/105/27 46/106/27 135/265/27 134/264/27
f 48/108/27 47/107/27 136/266/27 137/267/27
f 42/101/28 43/102/28 132/261/28 131/260/28
f 39/94/29 40/96/29 129/254/29 128/251/29
f 46/106/27 48/108/27 137/267/27 135/265/27
f 129/255/16 130/257/16 142/274/16 141/273/16
f 126/247/17 127/250/17 139/270/17 138/268/17
f 133/262/15 134/263/15 146/279/15 145/278/15
f 130/257/16 131/259/16 143/275/16 142/274/16
f 127/250/17 128/252/17 140/271/17 139/270/17
f 134/264/14 135/265/14 147/281/14 146/280/14
f 137/267/14 136/266/14 148/282/14 149/283/14
f 131/260/15 132/261/15 144/277/15 143/276/15
f 128/253/16 129/255/16 141/273/16 140/272/16
f 135/265/14 137/267/14 149/283/14 147/281/14
f 136/266/14 126/248/14 138/269/14 148/282/14
f 132/261/15 133/262/15 145/278/15 144/277/15
f 141/273/31 142/274/31 154/290/31 153/289/31
f 138/268/32 139/270/32 151/286/32 150/284/32
f 145/278/33 146/279/33 158/295/33 157/294/33
f 142/274/31 143/275/31 155/291/31 154/290/31
f 139/270/32 140/271/32 152/287/32 151/286/32
f 146/280/34 147/281/34 159/297/34 158/296/34
f 149/283/34 148/282/34 160/298/34 161/299/34
f 143/276/33 144/277/33 156/293/33 155/292/33
f 140/272/31 141/273/31 153/289/31 152/288/31
f 147/281/34 149/283/34 161/299/34 159/297/34
f 148/282/34 138/269/34 150/285/34 160/298/34
f 144/277/33 145/278/33 157/294/33 156/293/33
f 156/293/15 157/294/15 169/310/15 168/309/15
f 153/289/16 154/290/16 166/306/16 165/305/16
f 150/284/17 151/286/17 163/302/17 162/300/17
f 157/294/15 158/295/15 170/311/15 169/310/15
f 154/290/16 155/291/16 167/307/16 166/306/16
f 151/286/17 152/287/17 164/303/17 163/302/17
f 158/296/14 159/297/14 171/313/14 170/312/14
f 161/299/14 160/298/14 172/314/14 173/315/14
f 155/292/15 156/293/15 168/309/15 167/308/15
f 152/288/16 153/289/16 165/305/16 164/304/16
f 159/297/14 161/299/14 173/315/14 171/313/14
f 160/298/14 150/285/14 162/301/14 172/314/14
