# Blender 3.1.0
# www.blender.org
mtllib gardenshed.mtl
o Gardenshed
v -42.437035 0.241030 -24.063963
v -42.437035 5.302786 -24.063963
v -42.437035 0.241030 -28.775160
v -42.437035 5.302786 -28.775160
v -45.780037 0.241030 -24.063963
v -45.780037 5.302786 -24.063963
v -45.780037 0.241030 -28.775160
v -45.780037 5.302786 -28.775160
v -42.437035 0.241030 -26.419561
v -42.437035 6.943501 -26.419561
v -45.780037 0.241030 -26.419561
v -45.780037 6.943501 -26.419561
v -42.437035 7.436837 -26.419561
v -42.437035 5.796123 -28.775160
v -45.780037 5.796123 -28.775160
v -45.780037 7.436837 -26.419561
v -45.780037 5.796123 -24.063963
v -42.437035 5.796123 -24.063963
v -45.780037 4.795357 -23.328459
v -42.437035 4.795357 -23.328459
v -45.780037 5.288693 -23.328459
v -42.437035 5.288693 -23.328459
v -46.308689 6.943501 -26.419561
v -46.308689 5.302786 -24.063963
v -46.308689 5.302786 -28.775160
v -46.308689 5.796123 -28.775160
v -46.308689 7.436837 -26.419561
v -46.308689 5.796123 -24.063963
v -46.308689 4.795357 -23.328459
v -46.308689 5.288693 -23.328459
v -42.437031 5.302786 -28.775162
v -45.780033 5.302786 -28.775162
v -45.780033 5.796123 -28.775162
v -42.437031 5.796123 -28.775162
v -45.780033 4.795357 -29.510666
v -42.437031 4.795357 -29.510666
v -45.780033 5.288693 -29.510666
v -42.437031 5.288693 -29.510666
v -46.308685 5.302786 -28.775162
v -46.308685 5.796123 -28.775162
v -46.308685 4.795357 -29.510666
v -46.308685 5.288693 -29.510666
v -41.967979 6.943501 -26.419561
v -41.967979 5.302786 -28.775160
v -41.967979 5.302786 -24.063963
v -41.967979 7.436837 -26.419561
v -41.967979 5.796123 -28.775160
v -41.967979 5.796123 -24.063963
v -41.967979 4.795357 -23.328459
v -41.967979 5.288693 -23.328459
v -41.967976 5.302786 -28.775162
v -41.967976 5.796123 -28.775162
v -41.967976 4.795357 -29.510666
v -41.967976 5.288693 -29.510666
vn -1.0000 -0.0000 -0.0000
vn -0.0000 -0.0000 1.0000
vn 1.0000 -0.0000 -0.0000
vn -0.0000 -0.0000 -1.0000
vn -0.0000 1.0000 -0.0000
vn -0.0000 -0.8206 -0.5715
vn -0.0000 -0.8206 0.5715
vn -0.0000 0.8231 0.5679
vn -0.0000 0.8206 -0.5715
vn -0.0000 -0.8231 -0.5679
vn -0.0000 0.8206 0.5715
vn -0.0000 0.8231 -0.5679
vn -0.0000 -0.8231 0.5679
vt 0.489608 0.419118
vt 0.593778 0.288113
vt 0.299814 0.407416
vt 0.489608 0.722383
vt 0.299814 0.104151
vt 0.033953 0.701380
vt 0.582077 0.407416
vt 0.477907 0.419118
vt 0.593778 0.005851
vt 0.582077 0.104151
vt 0.477907 0.722383
vt 0.575435 0.966047
vt 0.033953 0.419117
vt 0.288113 0.407416
vt 0.689897 0.419118
vt 0.794067 0.288113
vt 0.288113 0.104151
vt 0.689897 0.722383
vt 0.234243 0.701380
vt 0.277617 0.419118
vt 0.794067 0.005851
vt 0.005851 0.407416
vt 0.277617 0.722383
vt 0.005851 0.104151
vt 0.234243 0.419117
vt 0.593778 0.146982
vt 0.440945 0.407416
vt 0.440945 0.005850
vt 0.033953 0.560249
vt 0.794067 0.146982
vt 0.146982 0.407416
vt 0.146982 0.005850
vt 0.234243 0.560249
vt 0.447577 0.966047
vt 0.277617 0.762187
vt 0.545877 0.966047
vt 0.545877 0.765757
vt 0.277617 0.962476
vt 0.447577 0.765757
vt 0.375917 0.962476
vt 0.375917 0.762187
vt 0.435876 0.962476
vt 0.234243 0.745446
vt 0.033953 0.745446
vt 0.435876 0.762187
vt 0.406319 0.962476
vt 0.406319 0.762187
vt 0.835198 0.202188
vt 0.265916 0.560249
vt 0.919983 0.052547
vt 0.265916 0.701380
vt 0.265916 0.419117
vt 0.946166 0.333592
vt 0.916736 0.336334
vt 0.545877 0.734084
vt 0.805768 0.204930
vt 0.277617 0.994149
vt 0.447577 0.734084
vt 0.890553 0.055289
vt 0.375917 0.994149
vt 0.435876 0.994149
vt 0.946166 0.005851
vt 0.265916 0.745446
vt 0.406319 0.994149
vt 0.916736 0.008592
vt 0.900637 0.651081
vt 0.900637 0.450791
vt 0.871079 0.919276
vt 0.871079 0.718986
vt 0.871079 0.651081
vt 0.956404 0.919276
vt 0.931038 0.450791
vt 0.956404 0.718986
vt 0.931038 0.651081
vt 0.926847 0.919276
vt 0.915145 0.919276
vt 0.926847 0.718986
vt 0.915145 0.718986
vt 0.629807 0.316599
vt 0.900637 0.419118
vt 0.871079 0.950949
vt 0.654137 0.299814
vt 0.956404 0.950949
vt 0.629807 0.370135
vt 0.931038 0.419118
vt 0.926847 0.950949
vt 0.915145 0.950949
vt 0.654137 0.353350
vt 0.731155 0.560070
vt 0.005851 0.560249
vt 0.575435 0.994149
vt 0.829821 0.419194
vt 0.005851 0.419117
vt 0.829091 0.701455
vt 0.005851 0.701380
vt 0.701598 0.559994
vt 0.447577 0.994149
vt 0.277617 0.734084
vt 0.800263 0.419117
vt 0.545877 0.994149
vt 0.799533 0.701379
vt 0.375917 0.734084
vt 0.005851 0.745446
vt 0.859378 0.745600
vt 0.435876 0.734084
vt 0.829821 0.745524
vt 0.406319 0.734084
vt 0.618106 0.316599
vt 0.900637 0.679183
vt 0.871079 0.690884
vt 0.593777 0.299814
vt 0.871079 0.679183
vt 0.956404 0.690884
vt 0.618106 0.370135
vt 0.931038 0.679183
vt 0.926847 0.690884
vt 0.915145 0.690884
vt 0.593777 0.353350
s 0
f 9/27/1 10/28/1 4/10/1 3/7/1
f 3/8/2 4/11/2 8/23/2 7/20/2
f 11/31/3 12/32/3 6/17/3 5/14/3
f 5/15/4 6/18/4 2/4/4 1/1/4
f 9/26/5 11/30/5 5/16/5 1/2/5
f 14/36/2 4/12/2 44/91/2 47/100/2
f 21/46/4 19/42/4 29/61/4 30/64/4
f 3/9/5 7/21/5 11/30/5 9/26/5
f 7/22/3 8/24/3 12/32/3 11/31/3
f 1/3/1 2/5/1 10/28/1 9/27/1
f 16/38/6 13/35/6 18/41/6 17/40/6
f 15/37/7 14/36/7 13/34/7 16/39/7
f 2/6/8 20/44/8 49/103/8 45/95/8
f 36/73/4 38/77/4 54/116/4 53/113/4
f 12/33/9 8/25/9 25/52/9 23/49/9
f 20/45/4 19/42/4 21/46/4 22/47/4
f 2/6/8 6/19/8 19/43/8 20/44/8
f 17/40/10 21/46/10 30/64/10 28/60/10
f 17/40/10 18/41/10 22/47/10 21/46/10
f 23/48/3 25/53/3 26/54/3 27/56/3
f 24/50/3 23/48/3 27/56/3 28/59/3
f 24/50/3 28/59/3 30/65/3 29/62/3
f 16/38/6 17/40/6 28/60/6 27/57/6
f 19/43/8 6/19/8 24/51/8 29/63/8
f 15/37/7 16/39/7 27/58/7 26/55/7
f 6/19/11 12/33/11 23/49/11 24/51/11
f 37/75/4 35/71/4 41/83/4 42/86/4
f 38/78/12 34/69/12 52/110/12 54/117/12
f 36/73/4 35/71/4 37/75/4 38/77/4
f 31/66/13 32/67/13 35/72/13 36/74/13
f 33/68/12 37/76/12 42/87/12 40/81/12
f 33/68/12 34/69/12 38/78/12 37/76/12
f 39/79/1 40/82/1 42/88/1 41/84/1
f 35/72/13 32/67/13 39/80/13 41/85/13
f 43/89/1 45/94/1 48/101/1 46/96/1
f 44/92/1 43/89/1 46/96/1 47/99/1
f 48/101/1 45/94/1 49/104/1 50/106/1
f 52/111/3 51/108/3 53/114/3 54/118/3
f 4/13/9 10/29/9 43/90/9 44/93/9
f 13/34/7 14/36/7 47/100/7 46/97/7
f 22/47/10 18/41/10 48/102/10 50/107/10
f 20/45/4 22/47/4 50/107/4 49/105/4
f 18/41/6 13/35/6 46/98/6 48/102/6
f 31/66/13 36/74/13 53/115/13 51/109/13
f 10/29/11 2/6/11 45/95/11 43/90/11
f 34/70/2 31/66/2 51/109/2 52/112/2
