# Blender 3.1.0
# www.blender.org
mtllib Landmass.mtl
o Landmass
v 17.244360 0.061462 -17.244360
v 75.225571 -0.061462 -60.325760
v 17.244360 0.061462 17.244360
v 75.225571 -0.061462 52.538368
v -17.244360 0.061462 -17.244360
v -52.538368 -0.061462 -60.325760
v -17.244360 0.061462 17.244360
v -52.538368 -0.061462 52.538368
v 75.225571 0.061462 52.538368
v -52.538368 0.061462 52.538368
v 75.225571 0.061462 -60.325760
v -52.538368 0.061462 -60.325760
vn -0.0000 -0.0000 1.0000
vn -1.0000 -0.0000 -0.0000
vn 1.0000 -0.0000 -0.0000
vn -0.0000 -0.0000 -1.0000
vn -0.0000 1.0000 -0.0000
vt 0.546185 0.453812
vt 0.886266 0.883381
vt 0.884342 0.000000
vt 0.276245 0.453812
vt 0.885304 1.000000
vt 0.886266 0.000000
vt 0.546185 0.723755
vt 0.887229 0.000000
vt 0.884342 1.000000
vt 0.276245 0.723755
vt 0.885304 0.000000
vt 0.887229 0.883381
vt 0.884342 1.000000
vt 0.885304 0.000000
vt 0.000000 0.000000
vt 0.884342 0.000000
vt 0.886267 0.883381
vt 0.000000 1.000000
vt 0.885304 0.883381
vt 0.883381 0.000000
vt 0.886267 0.000000
vt 0.883381 1.000000
s 0
usemtl Material
f 4/5/1 9/13/1 10/16/1 8/11/1
f 8/12/2 10/17/2 12/21/2 6/8/2
f 2/2/3 11/19/3 9/14/3 4/6/3
f 6/9/4 12/22/4 11/20/4 2/3/4
f 3/4/5 7/10/5 10/18/5 9/15/5
f 1/1/5 3/4/5 9/15/5 11/20/5
f 7/10/5 5/7/5 12/22/5 10/18/5
f 5/7/5 1/1/5 11/20/5 12/22/5
