# Blender 3.1.0
# www.blender.org
mtllib Vegetablebox.mtl
o Vegetablesquareleft
v -26.121199 -0.028855 8.565058
v -25.844173 0.322299 8.288032
v -26.121199 -0.028855 -10.526014
v -25.844173 0.322299 -10.248988
v -22.866640 -0.028855 8.565058
v -23.143665 0.322299 8.288032
v -22.866640 -0.028855 -10.526014
v -23.143665 0.322299 -10.248988
v -26.121199 0.322299 8.565058
v -26.121199 0.322299 -10.526014
v -22.866640 0.322299 -10.526014
v -22.866640 0.322299 8.565058
v -25.844173 0.107890 8.288032
v -25.844173 0.107890 -10.248988
v -23.143665 0.107890 -10.248988
v -23.143665 0.107890 8.288032
vn -1.0000 -0.0000 -0.0000
vn -0.0000 -0.0000 -1.0000
vn 1.0000 -0.0000 -0.0000
vn -0.0000 -0.0000 1.0000
vn -0.0000 -1.0000 -0.0000
vn -0.0000 1.0000 -0.0000
vt 0.548719 0.996291
vt 0.611524 0.180337
vt 0.180337 0.996291
vt 0.158517 0.981888
vt 0.574702 0.003709
vt 0.622979 0.356965
vt 0.548719 0.003709
vt 0.611524 0.172920
vt 0.180337 0.003709
vt 0.158517 0.018112
vt 0.574702 0.967485
vt 0.604414 0.497370
vt 0.523045 0.003709
vt 0.611524 0.349548
vt 0.349548 0.996291
vt 0.556137 0.967485
vt 0.018112 0.981888
vt 0.622979 0.497370
vt 0.611524 0.003709
vt 0.523045 0.996291
vt 0.349548 0.003709
vt 0.556137 0.003709
vt 0.018112 0.018112
vt 0.604414 0.356965
vt 0.530462 0.996291
vt 0.593267 0.180337
vt 0.172920 0.996291
vt 0.530462 0.003709
vt 0.593267 0.172920
vt 0.172920 0.003709
vt 0.593267 0.003709
vt 0.504788 0.996291
vt 0.003709 0.003709
vt 0.504788 0.003709
vt 0.593267 0.349548
vt 0.003709 0.996291
vt 0.497370 0.967485
vt 0.585849 0.003709
vt 0.611832 0.356965
vt 0.497370 0.003709
vt 0.585849 0.967485
vt 0.593267 0.497370
vt 0.567284 0.003709
vt 0.356966 0.003709
vt 0.593267 0.356965
vt 0.567284 0.967485
vt 0.356966 0.967485
vt 0.611832 0.497370
s 0
f 1/1/1 9/25/1 10/28/1 3/7/1
f 3/8/2 10/29/2 11/31/2 7/19/2
f 7/20/3 11/32/3 12/34/3 5/13/3
f 5/14/4 12/35/4 9/26/4 1/2/4
f 3/9/5 7/21/5 5/15/5 1/3/5
f 6/16/1 8/22/1 15/43/1 16/46/1
f 2/4/6 4/10/6 10/30/6 9/27/6
f 4/10/6 8/23/6 11/33/6 10/30/6
f 8/23/6 6/17/6 12/36/6 11/33/6
f 6/17/6 2/4/6 9/27/6 12/36/6
f 15/44/6 14/40/6 13/37/6 16/47/6
f 4/11/3 2/5/3 13/38/3 14/41/3
f 2/6/2 6/18/2 16/48/2 13/39/2
f 8/24/4 4/12/4 14/42/4 15/45/4
