# Blender 3.1.0
# www.blender.org
mtllib Hedge.mtl
o Borderhedge
v 11.782647 3.908051 14.645114
v 11.782647 5.358154 14.645114
v 11.782647 3.908051 13.195010
v 11.782647 5.358154 13.195010
v 13.232751 3.908051 14.645114
v 13.232751 5.358154 14.645114
v 13.232751 3.908051 13.195010
v 13.232751 5.358154 13.195010
v 11.782647 5.358154 3.702692
v 11.782647 3.908051 3.702692
v 13.232751 3.908051 3.702692
v 13.232751 5.358154 3.702692
v -11.803126 3.908051 13.195010
v -11.803126 3.908051 14.645114
v -11.803126 5.358154 14.645114
v -11.803126 5.358154 13.195010
v -10.368722 5.358154 14.645114
v -10.368722 3.908051 14.645114
v -10.368722 5.358154 13.195010
v -10.368722 3.908051 13.195010
v -11.803126 5.358154 -19.616550
v -11.803126 3.908051 -19.616550
v -10.368722 5.358154 -19.616550
v -10.368722 3.908051 -19.616550
v -11.803126 5.358154 -18.062103
v -11.803126 3.908051 -18.062103
v -10.368722 3.908051 -18.062103
v -10.368722 5.358154 -18.062103
v 13.232749 3.908051 -19.616550
v 13.232749 5.358154 -19.616550
v 13.232749 3.908051 -18.062103
v 13.232749 5.358154 -18.062103
v 11.672756 5.358154 -19.616550
v 11.672756 3.908051 -19.616550
v 11.672756 3.908051 -18.062103
v 11.672756 5.358154 -18.062103
v 13.232749 3.908051 -7.868009
v 13.232749 5.358154 -7.868009
v 11.672756 3.908051 -7.868009
v 11.672756 5.358154 -7.868009
vn -0.0000 -0.0000 1.0000
vn 1.0000 -0.0000 -0.0000
vn -0.0000 1.0000 -0.0000
vn -0.0000 -0.0000 -1.0000
vn -1.0000 -0.0000 -0.0000
vt 0.987109 0.416206
vt 0.861753 0.003997
vt 0.961766 0.416206
vt 0.162690 0.776681
vt 0.953772 0.558273
vt 0.137347 0.776681
vt 0.928428 0.558273
vt 0.861753 0.029340
vt 0.070672 0.802025
vt 0.987109 0.441549
vt 0.096015 0.802025
vt 0.961766 0.441549
vt 0.887096 0.003997
vt 0.070672 0.776681
vt 0.096015 0.776681
vt 0.887096 0.029340
vt 0.229365 0.636127
vt 0.861753 0.195238
vt 0.137347 0.610784
vt 0.229365 0.610783
vt 0.162690 0.610784
vt 0.070672 0.610784
vt 0.204021 0.610783
vt 0.096015 0.610784
vt 0.204021 0.636127
vt 0.887096 0.195238
vt 0.920434 0.577446
vt 0.987109 0.003998
vt 0.920434 0.602791
vt 0.961766 0.003998
vt 0.895091 0.602791
vt 0.449545 0.003997
vt 0.449545 0.029340
vt 0.895091 0.577446
vt 0.474613 0.003997
vt 0.961766 0.029066
vt 0.987109 0.029066
vt 0.928428 0.945413
vt 0.474613 0.029340
vt 0.953772 0.550280
vt 0.953772 0.945413
vt 0.928428 0.550280
vt 0.895091 0.003998
vt 0.961766 0.887097
vt 0.449545 0.602789
vt 0.920434 0.003998
vt 0.987109 0.887097
vt 0.474613 0.602789
vt 0.961766 0.862028
vt 0.987109 0.862028
vt 0.449545 0.575622
vt 0.895091 0.031162
vt 0.920434 0.031162
vt 0.928428 0.003998
vt 0.029340 0.610785
vt 0.953772 0.003998
vt 0.474613 0.575622
vt 0.003997 0.610785
vt 0.987109 0.449544
vt 0.062678 0.816113
vt 0.961766 0.449544
vt 0.037334 0.816113
vt 0.887096 0.602789
vt 0.062678 0.788946
vt 0.037334 0.788946
vt 0.887096 0.575622
vt 0.859833 0.602789
vt 0.961766 0.476808
vt 0.987109 0.476808
vt 0.029340 0.996004
vt 0.129353 0.610783
vt 0.003997 0.996004
vt 0.104009 0.610783
vt 0.859833 0.575622
vt 0.062678 0.610785
vt 0.196027 0.638047
vt 0.037334 0.610785
vt 0.170684 0.638047
vt 0.887096 0.397460
vt 0.196027 0.610783
vt 0.129353 0.788944
vt 0.170684 0.610783
vt 0.104009 0.788944
vt 0.859833 0.397460
s 0
f 18/37/1 17/36/1 15/30/1 14/28/1
f 8/15/2 7/14/2 11/22/2 12/24/2
f 7/14/2 8/15/2 6/11/2 5/9/2
f 5/10/1 6/12/1 2/3/1 1/1/1
f 8/16/3 4/8/3 2/2/3 6/13/3
f 10/20/4 9/17/4 12/25/4 11/23/4
f 4/8/3 8/16/3 12/26/3 9/18/3
f 3/4/5 4/6/5 9/19/5 10/21/5
f 14/29/5 15/31/5 16/34/5 13/27/5
f 17/35/3 19/39/3 16/33/3 15/32/3
f 26/53/5 25/52/5 21/43/5 22/46/5
f 4/7/4 3/5/4 20/41/4 19/38/4
f 2/2/3 4/8/3 19/39/3 17/35/3
f 1/1/1 2/3/1 17/36/1 18/37/1
f 23/49/4 24/50/4 22/47/4 21/44/4
f 34/69/4 33/68/4 30/61/4 29/59/4
f 25/51/3 28/57/3 23/48/3 21/45/3
f 16/33/3 19/39/3 28/57/3 25/51/3
f 19/40/2 20/42/2 27/54/2 28/56/2
f 13/27/5 16/34/5 25/52/5 26/53/5
f 32/65/2 31/64/2 29/60/2 30/62/2
f 31/64/2 32/65/2 38/77/2 37/75/2
f 33/67/3 36/74/3 32/66/3 30/63/3
f 23/48/3 28/57/3 36/74/3 33/67/3
f 28/58/1 27/55/1 35/70/1 36/72/1
f 24/50/4 23/49/4 33/68/4 34/69/4
f 40/82/1 39/80/1 37/76/1 38/78/1
f 36/73/5 35/71/5 39/81/5 40/83/5
f 32/66/3 36/74/3 40/84/3 38/79/3
