# Blender 3.1.0
# www.blender.org
mtllib memorialstone.mtl
o memorialstone1
v 12.184019 -0.101857 -27.620512
v 12.639566 0.873965 -28.568825
v 12.184019 -0.101857 -30.080883
v 12.639566 0.470949 -29.715509
v 15.608882 -0.101857 -27.620512
v 15.153335 0.873965 -28.568825
v 15.608882 -0.101857 -30.080883
v 15.153335 0.470949 -29.715509
v 12.184019 1.023919 -28.080883
v 12.184019 0.320996 -30.080883
v 15.608882 0.320996 -30.080883
v 15.608882 1.023919 -28.080883
v 12.639566 0.944449 -28.593597
v 12.639566 0.541433 -29.740282
v 15.153335 0.541433 -29.740282
v 15.153335 0.944449 -28.593597
vn -1.0000 -0.0000 -0.0000
vn -0.0000 -0.0000 -1.0000
vn 1.0000 -0.0000 -0.0000
vn -0.0000 0.3785 0.9256
vn -0.0000 -1.0000 -0.0000
vn -0.0446 0.9425 -0.3312
vn -0.0000 0.9251 -0.3797
vn 0.0446 0.9425 -0.3312
vn -0.0000 0.9559 -0.2938
vn -0.0000 0.9434 -0.3316
vn -0.0000 0.3316 0.9434
vn -0.0000 -0.3316 -0.9434
vt 0.202460 0.544528
vt 0.921183 0.004761
vt 0.004761 0.004761
vt 0.623671 0.732706
vt 0.474164 0.464477
vt 0.581658 0.544528
vt 0.202460 0.925448
vt 0.995239 0.535006
vt 0.385681 0.004761
vt 0.623671 0.544528
vt 0.662341 0.464477
vt 0.602582 0.933715
vt 0.560573 0.544528
vt 0.921183 0.535006
vt 0.004761 0.535006
vt 0.474164 0.075290
vt 0.581658 0.933715
vt 0.633193 0.732706
vt 0.995239 0.004761
vt 0.560573 0.925448
vt 0.385681 0.535006
vt 0.662341 0.075290
vt 0.602582 0.544528
vt 0.633193 0.544528
vt 0.376755 0.615804
vt 0.732936 0.004761
vt 0.395203 0.535006
vt 0.267927 0.925448
vt 0.930705 0.535006
vt 0.723415 0.535006
vt 0.930705 0.004761
vt 0.495106 0.925448
vt 0.723415 0.004761
vt 0.386277 0.615804
vt 0.732936 0.535006
vt 0.395203 0.004761
vt 0.612104 0.732706
vt 0.004761 0.933715
vt 0.570095 0.544528
vt 0.612104 0.544528
vt 0.192939 0.933715
vt 0.591180 0.933715
vt 0.192939 0.544528
vt 0.591180 0.544528
vt 0.644759 0.544528
vt 0.004761 0.544528
vt 0.570095 0.933715
vt 0.644759 0.732706
s 0
f 1/1/1 9/25/1 10/28/1 3/7/1
f 3/8/2 10/29/2 11/31/2 7/19/2
f 7/20/3 11/32/3 12/34/3 5/13/3
f 5/14/4 12/35/4 9/26/4 1/2/4
f 3/9/5 7/21/5 5/15/5 1/3/5
f 4/10/1 2/4/1 13/37/1 14/40/1
f 2/5/6 4/11/6 10/30/6 9/27/6
f 4/11/7 8/22/7 11/33/7 10/30/7
f 8/22/8 6/16/8 12/36/8 11/33/8
f 6/16/9 2/5/9 9/27/9 12/36/9
f 15/43/10 14/41/10 13/38/10 16/46/10
f 2/6/11 6/17/11 16/47/11 13/39/11
f 8/23/12 4/12/12 14/42/12 15/44/12
f 6/18/3 8/24/3 15/45/3 16/48/3
